solid cylinder_r0p5_h1
  facet normal 0.99144486 0.13052619 0.00000000
    outer loop
      vertex 0.50000000 0.00000000 0.00000000
      vertex 0.48296291 0.12940952 0.00000000
      vertex 0.48296291 0.12940952 1.00000000
    endloop
  endfacet
  facet normal 0.99144486 0.13052619 -0.00000000
    outer loop
      vertex 0.50000000 0.00000000 0.00000000
      vertex 0.48296291 0.12940952 1.00000000
      vertex 0.50000000 0.00000000 1.00000000
    endloop
  endfacet
  facet normal 0.92387953 0.38268343 0.00000000
    outer loop
      vertex 0.48296291 0.12940952 0.00000000
      vertex 0.43301270 0.25000000 0.00000000
      vertex 0.43301270 0.25000000 1.00000000
    endloop
  endfacet
  facet normal 0.92387953 0.38268343 -0.00000000
    outer loop
      vertex 0.48296291 0.12940952 0.00000000
      vertex 0.43301270 0.25000000 1.00000000
      vertex 0.48296291 0.12940952 1.00000000
    endloop
  endfacet
  facet normal 0.79335334 0.60876143 0.00000000
    outer loop
      vertex 0.43301270 0.25000000 0.00000000
      vertex 0.35355339 0.35355339 0.00000000
      vertex 0.35355339 0.35355339 1.00000000
    endloop
  endfacet
  facet normal 0.79335334 0.60876143 -0.00000000
    outer loop
      vertex 0.43301270 0.25000000 0.00000000
      vertex 0.35355339 0.35355339 1.00000000
      vertex 0.43301270 0.25000000 1.00000000
    endloop
  endfacet
  facet normal 0.60876143 0.79335334 0.00000000
    outer loop
      vertex 0.35355339 0.35355339 0.00000000
      vertex 0.25000000 0.43301270 0.00000000
      vertex 0.25000000 0.43301270 1.00000000
    endloop
  endfacet
  facet normal 0.60876143 0.79335334 -0.00000000
    outer loop
      vertex 0.35355339 0.35355339 0.00000000
      vertex 0.25000000 0.43301270 1.00000000
      vertex 0.35355339 0.35355339 1.00000000
    endloop
  endfacet
  facet normal 0.38268343 0.92387953 0.00000000
    outer loop
      vertex 0.25000000 0.43301270 0.00000000
      vertex 0.12940952 0.48296291 0.00000000
      vertex 0.12940952 0.48296291 1.00000000
    endloop
  endfacet
  facet normal 0.38268343 0.92387953 -0.00000000
    outer loop
      vertex 0.25000000 0.43301270 0.00000000
      vertex 0.12940952 0.48296291 1.00000000
      vertex 0.25000000 0.43301270 1.00000000
    endloop
  endfacet
  facet normal 0.13052619 0.99144486 0.00000000
    outer loop
      vertex 0.12940952 0.48296291 0.00000000
      vertex 0.00000000 0.50000000 0.00000000
      vertex 0.00000000 0.50000000 1.00000000
    endloop
  endfacet
  facet normal 0.13052619 0.99144486 -0.00000000
    outer loop
      vertex 0.12940952 0.48296291 0.00000000
      vertex 0.00000000 0.50000000 1.00000000
      vertex 0.12940952 0.48296291 1.00000000
    endloop
  endfacet
  facet normal -0.13052619 0.99144486 0.00000000
    outer loop
      vertex 0.00000000 0.50000000 0.00000000
      vertex -0.12940952 0.48296291 0.00000000
      vertex -0.12940952 0.48296291 1.00000000
    endloop
  endfacet
  facet normal -0.13052619 0.99144486 0.00000000
    outer loop
      vertex 0.00000000 0.50000000 0.00000000
      vertex -0.12940952 0.48296291 1.00000000
      vertex 0.00000000 0.50000000 1.00000000
    endloop
  endfacet
  facet normal -0.38268343 0.92387953 0.00000000
    outer loop
      vertex -0.12940952 0.48296291 0.00000000
      vertex -0.25000000 0.43301270 0.00000000
      vertex -0.25000000 0.43301270 1.00000000
    endloop
  endfacet
  facet normal -0.38268343 0.92387953 0.00000000
    outer loop
      vertex -0.12940952 0.48296291 0.00000000
      vertex -0.25000000 0.43301270 1.00000000
      vertex -0.12940952 0.48296291 1.00000000
    endloop
  endfacet
  facet normal -0.60876143 0.79335334 0.00000000
    outer loop
      vertex -0.25000000 0.43301270 0.00000000
      vertex -0.35355339 0.35355339 0.00000000
      vertex -0.35355339 0.35355339 1.00000000
    endloop
  endfacet
  facet normal -0.60876143 0.79335334 0.00000000
    outer loop
      vertex -0.25000000 0.43301270 0.00000000
      vertex -0.35355339 0.35355339 1.00000000
      vertex -0.25000000 0.43301270 1.00000000
    endloop
  endfacet
  facet normal -0.79335334 0.60876143 0.00000000
    outer loop
      vertex -0.35355339 0.35355339 0.00000000
      vertex -0.43301270 0.25000000 0.00000000
      vertex -0.43301270 0.25000000 1.00000000
    endloop
  endfacet
  facet normal -0.79335334 0.60876143 0.00000000
    outer loop
      vertex -0.35355339 0.35355339 0.00000000
      vertex -0.43301270 0.25000000 1.00000000
      vertex -0.35355339 0.35355339 1.00000000
    endloop
  endfacet
  facet normal -0.92387953 0.38268343 0.00000000
    outer loop
      vertex -0.43301270 0.25000000 0.00000000
      vertex -0.48296291 0.12940952 0.00000000
      vertex -0.48296291 0.12940952 1.00000000
    endloop
  endfacet
  facet normal -0.92387953 0.38268343 0.00000000
    outer loop
      vertex -0.43301270 0.25000000 0.00000000
      vertex -0.48296291 0.12940952 1.00000000
      vertex -0.43301270 0.25000000 1.00000000
    endloop
  endfacet
  facet normal -0.99144486 0.13052619 0.00000000
    outer loop
      vertex -0.48296291 0.12940952 0.00000000
      vertex -0.50000000 0.00000000 0.00000000
      vertex -0.50000000 0.00000000 1.00000000
    endloop
  endfacet
  facet normal -0.99144486 0.13052619 0.00000000
    outer loop
      vertex -0.48296291 0.12940952 0.00000000
      vertex -0.50000000 0.00000000 1.00000000
      vertex -0.48296291 0.12940952 1.00000000
    endloop
  endfacet
  facet normal -0.99144486 -0.13052619 0.00000000
    outer loop
      vertex -0.50000000 0.00000000 0.00000000
      vertex -0.48296291 -0.12940952 0.00000000
      vertex -0.48296291 -0.12940952 1.00000000
    endloop
  endfacet
  facet normal -0.99144486 -0.13052619 0.00000000
    outer loop
      vertex -0.50000000 0.00000000 0.00000000
      vertex -0.48296291 -0.12940952 1.00000000
      vertex -0.50000000 0.00000000 1.00000000
    endloop
  endfacet
  facet normal -0.92387953 -0.38268343 0.00000000
    outer loop
      vertex -0.48296291 -0.12940952 0.00000000
      vertex -0.43301270 -0.25000000 0.00000000
      vertex -0.43301270 -0.25000000 1.00000000
    endloop
  endfacet
  facet normal -0.92387953 -0.38268343 0.00000000
    outer loop
      vertex -0.48296291 -0.12940952 0.00000000
      vertex -0.43301270 -0.25000000 1.00000000
      vertex -0.48296291 -0.12940952 1.00000000
    endloop
  endfacet
  facet normal -0.79335334 -0.60876143 0.00000000
    outer loop
      vertex -0.43301270 -0.25000000 0.00000000
      vertex -0.35355339 -0.35355339 0.00000000
      vertex -0.35355339 -0.35355339 1.00000000
    endloop
  endfacet
  facet normal -0.79335334 -0.60876143 0.00000000
    outer loop
      vertex -0.43301270 -0.25000000 0.00000000
      vertex -0.35355339 -0.35355339 1.00000000
      vertex -0.43301270 -0.25000000 1.00000000
    endloop
  endfacet
  facet normal -0.60876143 -0.79335334 0.00000000
    outer loop
      vertex -0.35355339 -0.35355339 0.00000000
      vertex -0.25000000 -0.43301270 0.00000000
      vertex -0.25000000 -0.43301270 1.00000000
    endloop
  endfacet
  facet normal -0.60876143 -0.79335334 0.00000000
    outer loop
      vertex -0.35355339 -0.35355339 0.00000000
      vertex -0.25000000 -0.43301270 1.00000000
      vertex -0.35355339 -0.35355339 1.00000000
    endloop
  endfacet
  facet normal -0.38268343 -0.92387953 0.00000000
    outer loop
      vertex -0.25000000 -0.43301270 0.00000000
      vertex -0.12940952 -0.48296291 0.00000000
      vertex -0.12940952 -0.48296291 1.00000000
    endloop
  endfacet
  facet normal -0.38268343 -0.92387953 0.00000000
    outer loop
      vertex -0.25000000 -0.43301270 0.00000000
      vertex -0.12940952 -0.48296291 1.00000000
      vertex -0.25000000 -0.43301270 1.00000000
    endloop
  endfacet
  facet normal -0.13052619 -0.99144486 0.00000000
    outer loop
      vertex -0.12940952 -0.48296291 0.00000000
      vertex -0.00000000 -0.50000000 0.00000000
      vertex -0.00000000 -0.50000000 1.00000000
    endloop
  endfacet
  facet normal -0.13052619 -0.99144486 0.00000000
    outer loop
      vertex -0.12940952 -0.48296291 0.00000000
      vertex -0.00000000 -0.50000000 1.00000000
      vertex -0.12940952 -0.48296291 1.00000000
    endloop
  endfacet
  facet normal 0.13052619 -0.99144486 0.00000000
    outer loop
      vertex -0.00000000 -0.50000000 0.00000000
      vertex 0.12940952 -0.48296291 0.00000000
      vertex 0.12940952 -0.48296291 1.00000000
    endloop
  endfacet
  facet normal 0.13052619 -0.99144486 0.00000000
    outer loop
      vertex -0.00000000 -0.50000000 0.00000000
      vertex 0.12940952 -0.48296291 1.00000000
      vertex -0.00000000 -0.50000000 1.00000000
    endloop
  endfacet
  facet normal 0.38268343 -0.92387953 0.00000000
    outer loop
      vertex 0.12940952 -0.48296291 0.00000000
      vertex 0.25000000 -0.43301270 0.00000000
      vertex 0.25000000 -0.43301270 1.00000000
    endloop
  endfacet
  facet normal 0.38268343 -0.92387953 0.00000000
    outer loop
      vertex 0.12940952 -0.48296291 0.00000000
      vertex 0.25000000 -0.43301270 1.00000000
      vertex 0.12940952 -0.48296291 1.00000000
    endloop
  endfacet
  facet normal 0.60876143 -0.79335334 0.00000000
    outer loop
      vertex 0.25000000 -0.43301270 0.00000000
      vertex 0.35355339 -0.35355339 0.00000000
      vertex 0.35355339 -0.35355339 1.00000000
    endloop
  endfacet
  facet normal 0.60876143 -0.79335334 0.00000000
    outer loop
      vertex 0.25000000 -0.43301270 0.00000000
      vertex 0.35355339 -0.35355339 1.00000000
      vertex 0.25000000 -0.43301270 1.00000000
    endloop
  endfacet
  facet normal 0.79335334 -0.60876143 0.00000000
    outer loop
      vertex 0.35355339 -0.35355339 0.00000000
      vertex 0.43301270 -0.25000000 0.00000000
      vertex 0.43301270 -0.25000000 1.00000000
    endloop
  endfacet
  facet normal 0.79335334 -0.60876143 0.00000000
    outer loop
      vertex 0.35355339 -0.35355339 0.00000000
      vertex 0.43301270 -0.25000000 1.00000000
      vertex 0.35355339 -0.35355339 1.00000000
    endloop
  endfacet
  facet normal 0.92387953 -0.38268343 0.00000000
    outer loop
      vertex 0.43301270 -0.25000000 0.00000000
      vertex 0.48296291 -0.12940952 0.00000000
      vertex 0.48296291 -0.12940952 1.00000000
    endloop
  endfacet
  facet normal 0.92387953 -0.38268343 0.00000000
    outer loop
      vertex 0.43301270 -0.25000000 0.00000000
      vertex 0.48296291 -0.12940952 1.00000000
      vertex 0.43301270 -0.25000000 1.00000000
    endloop
  endfacet
  facet normal 0.99144486 -0.13052619 0.00000000
    outer loop
      vertex 0.48296291 -0.12940952 0.00000000
      vertex 0.50000000 0.00000000 0.00000000
      vertex 0.50000000 0.00000000 1.00000000
    endloop
  endfacet
  facet normal 0.99144486 -0.13052619 0.00000000
    outer loop
      vertex 0.48296291 -0.12940952 0.00000000
      vertex 0.50000000 0.00000000 1.00000000
      vertex 0.48296291 -0.12940952 1.00000000
    endloop
  endfacet
  facet normal 0.00000000 0.00000000 -1.00000000
    outer loop
      vertex 0.00000000 0.00000000 0.00000000
      vertex 0.48296291 0.12940952 0.00000000
      vertex 0.50000000 0.00000000 0.00000000
    endloop
  endfacet
  facet normal 0.00000000 0.00000000 1.00000000
    outer loop
      vertex 0.00000000 0.00000000 1.00000000
      vertex 0.50000000 0.00000000 1.00000000
      vertex 0.48296291 0.12940952 1.00000000
    endloop
  endfacet
  facet normal 0.00000000 0.00000000 -1.00000000
    outer loop
      vertex 0.00000000 0.00000000 0.00000000
      vertex 0.43301270 0.25000000 0.00000000
      vertex 0.48296291 0.12940952 0.00000000
    endloop
  endfacet
  facet normal 0.00000000 0.00000000 1.00000000
    outer loop
      vertex 0.00000000 0.00000000 1.00000000
      vertex 0.48296291 0.12940952 1.00000000
      vertex 0.43301270 0.25000000 1.00000000
    endloop
  endfacet
  facet normal 0.00000000 0.00000000 -1.00000000
    outer loop
      vertex 0.00000000 0.00000000 0.00000000
      vertex 0.35355339 0.35355339 0.00000000
      vertex 0.43301270 0.25000000 0.00000000
    endloop
  endfacet
  facet normal 0.00000000 0.00000000 1.00000000
    outer loop
      vertex 0.00000000 0.00000000 1.00000000
      vertex 0.43301270 0.25000000 1.00000000
      vertex 0.35355339 0.35355339 1.00000000
    endloop
  endfacet
  facet normal 0.00000000 0.00000000 -1.00000000
    outer loop
      vertex 0.00000000 0.00000000 0.00000000
      vertex 0.25000000 0.43301270 0.00000000
      vertex 0.35355339 0.35355339 0.00000000
    endloop
  endfacet
  facet normal 0.00000000 0.00000000 1.00000000
    outer loop
      vertex 0.00000000 0.00000000 1.00000000
      vertex 0.35355339 0.35355339 1.00000000
      vertex 0.25000000 0.43301270 1.00000000
    endloop
  endfacet
  facet normal 0.00000000 0.00000000 -1.00000000
    outer loop
      vertex 0.00000000 0.00000000 0.00000000
      vertex 0.12940952 0.48296291 0.00000000
      vertex 0.25000000 0.43301270 0.00000000
    endloop
  endfacet
  facet normal 0.00000000 0.00000000 1.00000000
    outer loop
      vertex 0.00000000 0.00000000 1.00000000
      vertex 0.25000000 0.43301270 1.00000000
      vertex 0.12940952 0.48296291 1.00000000
    endloop
  endfacet
  facet normal 0.00000000 0.00000000 -1.00000000
    outer loop
      vertex 0.00000000 0.00000000 0.00000000
      vertex 0.00000000 0.50000000 0.00000000
      vertex 0.12940952 0.48296291 0.00000000
    endloop
  endfacet
  facet normal 0.00000000 0.00000000 1.00000000
    outer loop
      vertex 0.00000000 0.00000000 1.00000000
      vertex 0.12940952 0.48296291 1.00000000
      vertex 0.00000000 0.50000000 1.00000000
    endloop
  endfacet
  facet normal 0.00000000 0.00000000 -1.00000000
    outer loop
      vertex 0.00000000 0.00000000 0.00000000
      vertex -0.12940952 0.48296291 0.00000000
      vertex 0.00000000 0.50000000 0.00000000
    endloop
  endfacet
  facet normal 0.00000000 -0.00000000 1.00000000
    outer loop
      vertex 0.00000000 0.00000000 1.00000000
      vertex 0.00000000 0.50000000 1.00000000
      vertex -0.12940952 0.48296291 1.00000000
    endloop
  endfacet
  facet normal 0.00000000 0.00000000 -1.00000000
    outer loop
      vertex 0.00000000 0.00000000 0.00000000
      vertex -0.25000000 0.43301270 0.00000000
      vertex -0.12940952 0.48296291 0.00000000
    endloop
  endfacet
  facet normal 0.00000000 0.00000000 1.00000000
    outer loop
      vertex 0.00000000 0.00000000 1.00000000
      vertex -0.12940952 0.48296291 1.00000000
      vertex -0.25000000 0.43301270 1.00000000
    endloop
  endfacet
  facet normal 0.00000000 0.00000000 -1.00000000
    outer loop
      vertex 0.00000000 0.00000000 0.00000000
      vertex -0.35355339 0.35355339 0.00000000
      vertex -0.25000000 0.43301270 0.00000000
    endloop
  endfacet
  facet normal 0.00000000 0.00000000 1.00000000
    outer loop
      vertex 0.00000000 0.00000000 1.00000000
      vertex -0.25000000 0.43301270 1.00000000
      vertex -0.35355339 0.35355339 1.00000000
    endloop
  endfacet
  facet normal 0.00000000 0.00000000 -1.00000000
    outer loop
      vertex 0.00000000 0.00000000 0.00000000
      vertex -0.43301270 0.25000000 0.00000000
      vertex -0.35355339 0.35355339 0.00000000
    endloop
  endfacet
  facet normal 0.00000000 0.00000000 1.00000000
    outer loop
      vertex 0.00000000 0.00000000 1.00000000
      vertex -0.35355339 0.35355339 1.00000000
      vertex -0.43301270 0.25000000 1.00000000
    endloop
  endfacet
  facet normal 0.00000000 0.00000000 -1.00000000
    outer loop
      vertex 0.00000000 0.00000000 0.00000000
      vertex -0.48296291 0.12940952 0.00000000
      vertex -0.43301270 0.25000000 0.00000000
    endloop
  endfacet
  facet normal 0.00000000 0.00000000 1.00000000
    outer loop
      vertex 0.00000000 0.00000000 1.00000000
      vertex -0.43301270 0.25000000 1.00000000
      vertex -0.48296291 0.12940952 1.00000000
    endloop
  endfacet
  facet normal 0.00000000 0.00000000 -1.00000000
    outer loop
      vertex 0.00000000 0.00000000 0.00000000
      vertex -0.50000000 0.00000000 0.00000000
      vertex -0.48296291 0.12940952 0.00000000
    endloop
  endfacet
  facet normal 0.00000000 0.00000000 1.00000000
    outer loop
      vertex 0.00000000 0.00000000 1.00000000
      vertex -0.48296291 0.12940952 1.00000000
      vertex -0.50000000 0.00000000 1.00000000
    endloop
  endfacet
  facet normal -0.00000000 0.00000000 -1.00000000
    outer loop
      vertex 0.00000000 0.00000000 0.00000000
      vertex -0.48296291 -0.12940952 0.00000000
      vertex -0.50000000 0.00000000 0.00000000
    endloop
  endfacet
  facet normal 0.00000000 0.00000000 1.00000000
    outer loop
      vertex 0.00000000 0.00000000 1.00000000
      vertex -0.50000000 0.00000000 1.00000000
      vertex -0.48296291 -0.12940952 1.00000000
    endloop
  endfacet
  facet normal 0.00000000 0.00000000 -1.00000000
    outer loop
      vertex 0.00000000 0.00000000 0.00000000
      vertex -0.43301270 -0.25000000 0.00000000
      vertex -0.48296291 -0.12940952 0.00000000
    endloop
  endfacet
  facet normal 0.00000000 0.00000000 1.00000000
    outer loop
      vertex 0.00000000 0.00000000 1.00000000
      vertex -0.48296291 -0.12940952 1.00000000
      vertex -0.43301270 -0.25000000 1.00000000
    endloop
  endfacet
  facet normal 0.00000000 0.00000000 -1.00000000
    outer loop
      vertex 0.00000000 0.00000000 0.00000000
      vertex -0.35355339 -0.35355339 0.00000000
      vertex -0.43301270 -0.25000000 0.00000000
    endloop
  endfacet
  facet normal 0.00000000 0.00000000 1.00000000
    outer loop
      vertex 0.00000000 0.00000000 1.00000000
      vertex -0.43301270 -0.25000000 1.00000000
      vertex -0.35355339 -0.35355339 1.00000000
    endloop
  endfacet
  facet normal 0.00000000 0.00000000 -1.00000000
    outer loop
      vertex 0.00000000 0.00000000 0.00000000
      vertex -0.25000000 -0.43301270 0.00000000
      vertex -0.35355339 -0.35355339 0.00000000
    endloop
  endfacet
  facet normal 0.00000000 0.00000000 1.00000000
    outer loop
      vertex 0.00000000 0.00000000 1.00000000
      vertex -0.35355339 -0.35355339 1.00000000
      vertex -0.25000000 -0.43301270 1.00000000
    endloop
  endfacet
  facet normal 0.00000000 0.00000000 -1.00000000
    outer loop
      vertex 0.00000000 0.00000000 0.00000000
      vertex -0.12940952 -0.48296291 0.00000000
      vertex -0.25000000 -0.43301270 0.00000000
    endloop
  endfacet
  facet normal 0.00000000 0.00000000 1.00000000
    outer loop
      vertex 0.00000000 0.00000000 1.00000000
      vertex -0.25000000 -0.43301270 1.00000000
      vertex -0.12940952 -0.48296291 1.00000000
    endloop
  endfacet
  facet normal 0.00000000 0.00000000 -1.00000000
    outer loop
      vertex 0.00000000 0.00000000 0.00000000
      vertex -0.00000000 -0.50000000 0.00000000
      vertex -0.12940952 -0.48296291 0.00000000
    endloop
  endfacet
  facet normal 0.00000000 0.00000000 1.00000000
    outer loop
      vertex 0.00000000 0.00000000 1.00000000
      vertex -0.12940952 -0.48296291 1.00000000
      vertex -0.00000000 -0.50000000 1.00000000
    endloop
  endfacet
  facet normal 0.00000000 -0.00000000 -1.00000000
    outer loop
      vertex 0.00000000 0.00000000 0.00000000
      vertex 0.12940952 -0.48296291 0.00000000
      vertex -0.00000000 -0.50000000 0.00000000
    endloop
  endfacet
  facet normal 0.00000000 0.00000000 1.00000000
    outer loop
      vertex 0.00000000 0.00000000 1.00000000
      vertex -0.00000000 -0.50000000 1.00000000
      vertex 0.12940952 -0.48296291 1.00000000
    endloop
  endfacet
  facet normal 0.00000000 0.00000000 -1.00000000
    outer loop
      vertex 0.00000000 0.00000000 0.00000000
      vertex 0.25000000 -0.43301270 0.00000000
      vertex 0.12940952 -0.48296291 0.00000000
    endloop
  endfacet
  facet normal 0.00000000 0.00000000 1.00000000
    outer loop
      vertex 0.00000000 0.00000000 1.00000000
      vertex 0.12940952 -0.48296291 1.00000000
      vertex 0.25000000 -0.43301270 1.00000000
    endloop
  endfacet
  facet normal 0.00000000 0.00000000 -1.00000000
    outer loop
      vertex 0.00000000 0.00000000 0.00000000
      vertex 0.35355339 -0.35355339 0.00000000
      vertex 0.25000000 -0.43301270 0.00000000
    endloop
  endfacet
  facet normal 0.00000000 0.00000000 1.00000000
    outer loop
      vertex 0.00000000 0.00000000 1.00000000
      vertex 0.25000000 -0.43301270 1.00000000
      vertex 0.35355339 -0.35355339 1.00000000
    endloop
  endfacet
  facet normal 0.00000000 0.00000000 -1.00000000
    outer loop
      vertex 0.00000000 0.00000000 0.00000000
      vertex 0.43301270 -0.25000000 0.00000000
      vertex 0.35355339 -0.35355339 0.00000000
    endloop
  endfacet
  facet normal 0.00000000 0.00000000 1.00000000
    outer loop
      vertex 0.00000000 0.00000000 1.00000000
      vertex 0.35355339 -0.35355339 1.00000000
      vertex 0.43301270 -0.25000000 1.00000000
    endloop
  endfacet
  facet normal 0.00000000 0.00000000 -1.00000000
    outer loop
      vertex 0.00000000 0.00000000 0.00000000
      vertex 0.48296291 -0.12940952 0.00000000
      vertex 0.43301270 -0.25000000 0.00000000
    endloop
  endfacet
  facet normal 0.00000000 0.00000000 1.00000000
    outer loop
      vertex 0.00000000 0.00000000 1.00000000
      vertex 0.43301270 -0.25000000 1.00000000
      vertex 0.48296291 -0.12940952 1.00000000
    endloop
  endfacet
  facet normal 0.00000000 0.00000000 -1.00000000
    outer loop
      vertex 0.00000000 0.00000000 0.00000000
      vertex 0.50000000 0.00000000 0.00000000
      vertex 0.48296291 -0.12940952 0.00000000
    endloop
  endfacet
  facet normal -0.00000000 0.00000000 1.00000000
    outer loop
      vertex 0.00000000 0.00000000 1.00000000
      vertex 0.48296291 -0.12940952 1.00000000
      vertex 0.50000000 0.00000000 1.00000000
    endloop
  endfacet
endsolid cylinder_r0p5_h1
