solid de_laval_nozzle_idealized
  facet normal 0.86131482 0.11339425 0.49525602
    outer loop
      vertex 0.35000000 0.00000000 0.00000000
      vertex 0.33807404 0.09058667 0.00000000
      vertex 0.11591110 0.03105829 0.40000000
    endloop
  endfacet
  facet normal 0.86131482 0.11339425 0.49525602
    outer loop
      vertex 0.35000000 0.00000000 0.00000000
      vertex 0.11591110 0.03105829 0.40000000
      vertex 0.12000000 0.00000000 0.40000000
    endloop
  endfacet
  facet normal 0.80261764 0.33245511 0.49525602
    outer loop
      vertex 0.33807404 0.09058667 0.00000000
      vertex 0.30310889 0.17500000 0.00000000
      vertex 0.10392305 0.06000000 0.40000000
    endloop
  endfacet
  facet normal 0.80261764 0.33245511 0.49525602
    outer loop
      vertex 0.33807404 0.09058667 0.00000000
      vertex 0.10392305 0.06000000 0.40000000
      vertex 0.11591110 0.03105829 0.40000000
    endloop
  endfacet
  facet normal 0.68922339 0.52885971 0.49525602
    outer loop
      vertex 0.30310889 0.17500000 0.00000000
      vertex 0.24748737 0.24748737 0.00000000
      vertex 0.08485281 0.08485281 0.40000000
    endloop
  endfacet
  facet normal 0.68922339 0.52885971 0.49525602
    outer loop
      vertex 0.30310889 0.17500000 0.00000000
      vertex 0.08485281 0.08485281 0.40000000
      vertex 0.10392305 0.06000000 0.40000000
    endloop
  endfacet
  facet normal 0.52885971 0.68922339 0.49525602
    outer loop
      vertex 0.24748737 0.24748737 0.00000000
      vertex 0.17500000 0.30310889 0.00000000
      vertex 0.06000000 0.10392305 0.40000000
    endloop
  endfacet
  facet normal 0.52885971 0.68922339 0.49525602
    outer loop
      vertex 0.24748737 0.24748737 0.00000000
      vertex 0.06000000 0.10392305 0.40000000
      vertex 0.08485281 0.08485281 0.40000000
    endloop
  endfacet
  facet normal 0.33245511 0.80261764 0.49525602
    outer loop
      vertex 0.17500000 0.30310889 0.00000000
      vertex 0.09058667 0.33807404 0.00000000
      vertex 0.03105829 0.11591110 0.40000000
    endloop
  endfacet
  facet normal 0.33245511 0.80261764 0.49525602
    outer loop
      vertex 0.17500000 0.30310889 0.00000000
      vertex 0.03105829 0.11591110 0.40000000
      vertex 0.06000000 0.10392305 0.40000000
    endloop
  endfacet
  facet normal 0.11339425 0.86131482 0.49525602
    outer loop
      vertex 0.09058667 0.33807404 0.00000000
      vertex 0.00000000 0.35000000 0.00000000
      vertex 0.00000000 0.12000000 0.40000000
    endloop
  endfacet
  facet normal 0.11339425 0.86131482 0.49525602
    outer loop
      vertex 0.09058667 0.33807404 0.00000000
      vertex 0.00000000 0.12000000 0.40000000
      vertex 0.03105829 0.11591110 0.40000000
    endloop
  endfacet
  facet normal -0.11339425 0.86131482 0.49525602
    outer loop
      vertex 0.00000000 0.35000000 0.00000000
      vertex -0.09058667 0.33807404 0.00000000
      vertex -0.03105829 0.11591110 0.40000000
    endloop
  endfacet
  facet normal -0.11339425 0.86131482 0.49525602
    outer loop
      vertex 0.00000000 0.35000000 0.00000000
      vertex -0.03105829 0.11591110 0.40000000
      vertex 0.00000000 0.12000000 0.40000000
    endloop
  endfacet
  facet normal -0.33245511 0.80261764 0.49525602
    outer loop
      vertex -0.09058667 0.33807404 0.00000000
      vertex -0.17500000 0.30310889 0.00000000
      vertex -0.06000000 0.10392305 0.40000000
    endloop
  endfacet
  facet normal -0.33245511 0.80261764 0.49525602
    outer loop
      vertex -0.09058667 0.33807404 0.00000000
      vertex -0.06000000 0.10392305 0.40000000
      vertex -0.03105829 0.11591110 0.40000000
    endloop
  endfacet
  facet normal -0.52885971 0.68922339 0.49525602
    outer loop
      vertex -0.17500000 0.30310889 0.00000000
      vertex -0.24748737 0.24748737 0.00000000
      vertex -0.08485281 0.08485281 0.40000000
    endloop
  endfacet
  facet normal -0.52885971 0.68922339 0.49525602
    outer loop
      vertex -0.17500000 0.30310889 0.00000000
      vertex -0.08485281 0.08485281 0.40000000
      vertex -0.06000000 0.10392305 0.40000000
    endloop
  endfacet
  facet normal -0.68922339 0.52885971 0.49525602
    outer loop
      vertex -0.24748737 0.24748737 0.00000000
      vertex -0.30310889 0.17500000 0.00000000
      vertex -0.10392305 0.06000000 0.40000000
    endloop
  endfacet
  facet normal -0.68922339 0.52885971 0.49525602
    outer loop
      vertex -0.24748737 0.24748737 0.00000000
      vertex -0.10392305 0.06000000 0.40000000
      vertex -0.08485281 0.08485281 0.40000000
    endloop
  endfacet
  facet normal -0.80261764 0.33245511 0.49525602
    outer loop
      vertex -0.30310889 0.17500000 0.00000000
      vertex -0.33807404 0.09058667 0.00000000
      vertex -0.11591110 0.03105829 0.40000000
    endloop
  endfacet
  facet normal -0.80261764 0.33245511 0.49525602
    outer loop
      vertex -0.30310889 0.17500000 0.00000000
      vertex -0.11591110 0.03105829 0.40000000
      vertex -0.10392305 0.06000000 0.40000000
    endloop
  endfacet
  facet normal -0.86131482 0.11339425 0.49525602
    outer loop
      vertex -0.33807404 0.09058667 0.00000000
      vertex -0.35000000 0.00000000 0.00000000
      vertex -0.12000000 0.00000000 0.40000000
    endloop
  endfacet
  facet normal -0.86131482 0.11339425 0.49525602
    outer loop
      vertex -0.33807404 0.09058667 0.00000000
      vertex -0.12000000 0.00000000 0.40000000
      vertex -0.11591110 0.03105829 0.40000000
    endloop
  endfacet
  facet normal -0.86131482 -0.11339425 0.49525602
    outer loop
      vertex -0.35000000 0.00000000 0.00000000
      vertex -0.33807404 -0.09058667 0.00000000
      vertex -0.11591110 -0.03105829 0.40000000
    endloop
  endfacet
  facet normal -0.86131482 -0.11339425 0.49525602
    outer loop
      vertex -0.35000000 0.00000000 0.00000000
      vertex -0.11591110 -0.03105829 0.40000000
      vertex -0.12000000 0.00000000 0.40000000
    endloop
  endfacet
  facet normal -0.80261764 -0.33245511 0.49525602
    outer loop
      vertex -0.33807404 -0.09058667 0.00000000
      vertex -0.30310889 -0.17500000 0.00000000
      vertex -0.10392305 -0.06000000 0.40000000
    endloop
  endfacet
  facet normal -0.80261764 -0.33245511 0.49525602
    outer loop
      vertex -0.33807404 -0.09058667 0.00000000
      vertex -0.10392305 -0.06000000 0.40000000
      vertex -0.11591110 -0.03105829 0.40000000
    endloop
  endfacet
  facet normal -0.68922339 -0.52885971 0.49525602
    outer loop
      vertex -0.30310889 -0.17500000 0.00000000
      vertex -0.24748737 -0.24748737 0.00000000
      vertex -0.08485281 -0.08485281 0.40000000
    endloop
  endfacet
  facet normal -0.68922339 -0.52885971 0.49525602
    outer loop
      vertex -0.30310889 -0.17500000 0.00000000
      vertex -0.08485281 -0.08485281 0.40000000
      vertex -0.10392305 -0.06000000 0.40000000
    endloop
  endfacet
  facet normal -0.52885971 -0.68922339 0.49525602
    outer loop
      vertex -0.24748737 -0.24748737 0.00000000
      vertex -0.17500000 -0.30310889 0.00000000
      vertex -0.06000000 -0.10392305 0.40000000
    endloop
  endfacet
  facet normal -0.52885971 -0.68922339 0.49525602
    outer loop
      vertex -0.24748737 -0.24748737 0.00000000
      vertex -0.06000000 -0.10392305 0.40000000
      vertex -0.08485281 -0.08485281 0.40000000
    endloop
  endfacet
  facet normal -0.33245511 -0.80261764 0.49525602
    outer loop
      vertex -0.17500000 -0.30310889 0.00000000
      vertex -0.09058667 -0.33807404 0.00000000
      vertex -0.03105829 -0.11591110 0.40000000
    endloop
  endfacet
  facet normal -0.33245511 -0.80261764 0.49525602
    outer loop
      vertex -0.17500000 -0.30310889 0.00000000
      vertex -0.03105829 -0.11591110 0.40000000
      vertex -0.06000000 -0.10392305 0.40000000
    endloop
  endfacet
  facet normal -0.11339425 -0.86131482 0.49525602
    outer loop
      vertex -0.09058667 -0.33807404 0.00000000
      vertex -0.00000000 -0.35000000 0.00000000
      vertex -0.00000000 -0.12000000 0.40000000
    endloop
  endfacet
  facet normal -0.11339425 -0.86131482 0.49525602
    outer loop
      vertex -0.09058667 -0.33807404 0.00000000
      vertex -0.00000000 -0.12000000 0.40000000
      vertex -0.03105829 -0.11591110 0.40000000
    endloop
  endfacet
  facet normal 0.11339425 -0.86131482 0.49525602
    outer loop
      vertex -0.00000000 -0.35000000 0.00000000
      vertex 0.09058667 -0.33807404 0.00000000
      vertex 0.03105829 -0.11591110 0.40000000
    endloop
  endfacet
  facet normal 0.11339425 -0.86131482 0.49525602
    outer loop
      vertex -0.00000000 -0.35000000 0.00000000
      vertex 0.03105829 -0.11591110 0.40000000
      vertex -0.00000000 -0.12000000 0.40000000
    endloop
  endfacet
  facet normal 0.33245511 -0.80261764 0.49525602
    outer loop
      vertex 0.09058667 -0.33807404 0.00000000
      vertex 0.17500000 -0.30310889 0.00000000
      vertex 0.06000000 -0.10392305 0.40000000
    endloop
  endfacet
  facet normal 0.33245511 -0.80261764 0.49525602
    outer loop
      vertex 0.09058667 -0.33807404 0.00000000
      vertex 0.06000000 -0.10392305 0.40000000
      vertex 0.03105829 -0.11591110 0.40000000
    endloop
  endfacet
  facet normal 0.52885971 -0.68922339 0.49525602
    outer loop
      vertex 0.17500000 -0.30310889 0.00000000
      vertex 0.24748737 -0.24748737 0.00000000
      vertex 0.08485281 -0.08485281 0.40000000
    endloop
  endfacet
  facet normal 0.52885971 -0.68922339 0.49525602
    outer loop
      vertex 0.17500000 -0.30310889 0.00000000
      vertex 0.08485281 -0.08485281 0.40000000
      vertex 0.06000000 -0.10392305 0.40000000
    endloop
  endfacet
  facet normal 0.68922339 -0.52885971 0.49525602
    outer loop
      vertex 0.24748737 -0.24748737 0.00000000
      vertex 0.30310889 -0.17500000 0.00000000
      vertex 0.10392305 -0.06000000 0.40000000
    endloop
  endfacet
  facet normal 0.68922339 -0.52885971 0.49525602
    outer loop
      vertex 0.24748737 -0.24748737 0.00000000
      vertex 0.10392305 -0.06000000 0.40000000
      vertex 0.08485281 -0.08485281 0.40000000
    endloop
  endfacet
  facet normal 0.80261764 -0.33245511 0.49525602
    outer loop
      vertex 0.30310889 -0.17500000 0.00000000
      vertex 0.33807404 -0.09058667 0.00000000
      vertex 0.11591110 -0.03105829 0.40000000
    endloop
  endfacet
  facet normal 0.80261764 -0.33245511 0.49525602
    outer loop
      vertex 0.30310889 -0.17500000 0.00000000
      vertex 0.11591110 -0.03105829 0.40000000
      vertex 0.10392305 -0.06000000 0.40000000
    endloop
  endfacet
  facet normal 0.86131482 -0.11339425 0.49525602
    outer loop
      vertex 0.33807404 -0.09058667 0.00000000
      vertex 0.35000000 0.00000000 0.00000000
      vertex 0.12000000 0.00000000 0.40000000
    endloop
  endfacet
  facet normal 0.86131482 -0.11339425 0.49525602
    outer loop
      vertex 0.33807404 -0.09058667 0.00000000
      vertex 0.12000000 0.00000000 0.40000000
      vertex 0.11591110 -0.03105829 0.40000000
    endloop
  endfacet
  facet normal 0.87044355 0.11459607 -0.47874395
    outer loop
      vertex 0.12000000 0.00000000 0.40000000
      vertex 0.11591110 0.03105829 0.40000000
      vertex 0.43466662 0.11646857 1.00000000
    endloop
  endfacet
  facet normal 0.87044355 0.11459607 -0.47874395
    outer loop
      vertex 0.12000000 0.00000000 0.40000000
      vertex 0.43466662 0.11646857 1.00000000
      vertex 0.45000000 0.00000000 1.00000000
    endloop
  endfacet
  facet normal 0.81112426 0.33597867 -0.47874395
    outer loop
      vertex 0.11591110 0.03105829 0.40000000
      vertex 0.10392305 0.06000000 0.40000000
      vertex 0.38971143 0.22500000 1.00000000
    endloop
  endfacet
  facet normal 0.81112426 0.33597867 -0.47874395
    outer loop
      vertex 0.11591110 0.03105829 0.40000000
      vertex 0.38971143 0.22500000 1.00000000
      vertex 0.43466662 0.11646857 1.00000000
    endloop
  endfacet
  facet normal 0.69652819 0.53446488 -0.47874395
    outer loop
      vertex 0.10392305 0.06000000 0.40000000
      vertex 0.08485281 0.08485281 0.40000000
      vertex 0.31819805 0.31819805 1.00000000
    endloop
  endfacet
  facet normal 0.69652819 0.53446488 -0.47874395
    outer loop
      vertex 0.10392305 0.06000000 0.40000000
      vertex 0.31819805 0.31819805 1.00000000
      vertex 0.38971143 0.22500000 1.00000000
    endloop
  endfacet
  facet normal 0.53446488 0.69652819 -0.47874395
    outer loop
      vertex 0.08485281 0.08485281 0.40000000
      vertex 0.06000000 0.10392305 0.40000000
      vertex 0.22500000 0.38971143 1.00000000
    endloop
  endfacet
  facet normal 0.53446488 0.69652819 -0.47874395
    outer loop
      vertex 0.08485281 0.08485281 0.40000000
      vertex 0.22500000 0.38971143 1.00000000
      vertex 0.31819805 0.31819805 1.00000000
    endloop
  endfacet
  facet normal 0.33597867 0.81112426 -0.47874395
    outer loop
      vertex 0.06000000 0.10392305 0.40000000
      vertex 0.03105829 0.11591110 0.40000000
      vertex 0.11646857 0.43466662 1.00000000
    endloop
  endfacet
  facet normal 0.33597867 0.81112426 -0.47874395
    outer loop
      vertex 0.06000000 0.10392305 0.40000000
      vertex 0.11646857 0.43466662 1.00000000
      vertex 0.22500000 0.38971143 1.00000000
    endloop
  endfacet
  facet normal 0.11459607 0.87044355 -0.47874395
    outer loop
      vertex 0.03105829 0.11591110 0.40000000
      vertex 0.00000000 0.12000000 0.40000000
      vertex 0.00000000 0.45000000 1.00000000
    endloop
  endfacet
  facet normal 0.11459607 0.87044355 -0.47874395
    outer loop
      vertex 0.03105829 0.11591110 0.40000000
      vertex 0.00000000 0.45000000 1.00000000
      vertex 0.11646857 0.43466662 1.00000000
    endloop
  endfacet
  facet normal -0.11459607 0.87044355 -0.47874395
    outer loop
      vertex 0.00000000 0.12000000 0.40000000
      vertex -0.03105829 0.11591110 0.40000000
      vertex -0.11646857 0.43466662 1.00000000
    endloop
  endfacet
  facet normal -0.11459607 0.87044355 -0.47874395
    outer loop
      vertex 0.00000000 0.12000000 0.40000000
      vertex -0.11646857 0.43466662 1.00000000
      vertex 0.00000000 0.45000000 1.00000000
    endloop
  endfacet
  facet normal -0.33597867 0.81112426 -0.47874395
    outer loop
      vertex -0.03105829 0.11591110 0.40000000
      vertex -0.06000000 0.10392305 0.40000000
      vertex -0.22500000 0.38971143 1.00000000
    endloop
  endfacet
  facet normal -0.33597867 0.81112426 -0.47874395
    outer loop
      vertex -0.03105829 0.11591110 0.40000000
      vertex -0.22500000 0.38971143 1.00000000
      vertex -0.11646857 0.43466662 1.00000000
    endloop
  endfacet
  facet normal -0.53446488 0.69652819 -0.47874395
    outer loop
      vertex -0.06000000 0.10392305 0.40000000
      vertex -0.08485281 0.08485281 0.40000000
      vertex -0.31819805 0.31819805 1.00000000
    endloop
  endfacet
  facet normal -0.53446488 0.69652819 -0.47874395
    outer loop
      vertex -0.06000000 0.10392305 0.40000000
      vertex -0.31819805 0.31819805 1.00000000
      vertex -0.22500000 0.38971143 1.00000000
    endloop
  endfacet
  facet normal -0.69652819 0.53446488 -0.47874395
    outer loop
      vertex -0.08485281 0.08485281 0.40000000
      vertex -0.10392305 0.06000000 0.40000000
      vertex -0.38971143 0.22500000 1.00000000
    endloop
  endfacet
  facet normal -0.69652819 0.53446488 -0.47874395
    outer loop
      vertex -0.08485281 0.08485281 0.40000000
      vertex -0.38971143 0.22500000 1.00000000
      vertex -0.31819805 0.31819805 1.00000000
    endloop
  endfacet
  facet normal -0.81112426 0.33597867 -0.47874395
    outer loop
      vertex -0.10392305 0.06000000 0.40000000
      vertex -0.11591110 0.03105829 0.40000000
      vertex -0.43466662 0.11646857 1.00000000
    endloop
  endfacet
  facet normal -0.81112426 0.33597867 -0.47874395
    outer loop
      vertex -0.10392305 0.06000000 0.40000000
      vertex -0.43466662 0.11646857 1.00000000
      vertex -0.38971143 0.22500000 1.00000000
    endloop
  endfacet
  facet normal -0.87044355 0.11459607 -0.47874395
    outer loop
      vertex -0.11591110 0.03105829 0.40000000
      vertex -0.12000000 0.00000000 0.40000000
      vertex -0.45000000 0.00000000 1.00000000
    endloop
  endfacet
  facet normal -0.87044355 0.11459607 -0.47874395
    outer loop
      vertex -0.11591110 0.03105829 0.40000000
      vertex -0.45000000 0.00000000 1.00000000
      vertex -0.43466662 0.11646857 1.00000000
    endloop
  endfacet
  facet normal -0.87044355 -0.11459607 -0.47874395
    outer loop
      vertex -0.12000000 0.00000000 0.40000000
      vertex -0.11591110 -0.03105829 0.40000000
      vertex -0.43466662 -0.11646857 1.00000000
    endloop
  endfacet
  facet normal -0.87044355 -0.11459607 -0.47874395
    outer loop
      vertex -0.12000000 0.00000000 0.40000000
      vertex -0.43466662 -0.11646857 1.00000000
      vertex -0.45000000 0.00000000 1.00000000
    endloop
  endfacet
  facet normal -0.81112426 -0.33597867 -0.47874395
    outer loop
      vertex -0.11591110 -0.03105829 0.40000000
      vertex -0.10392305 -0.06000000 0.40000000
      vertex -0.38971143 -0.22500000 1.00000000
    endloop
  endfacet
  facet normal -0.81112426 -0.33597867 -0.47874395
    outer loop
      vertex -0.11591110 -0.03105829 0.40000000
      vertex -0.38971143 -0.22500000 1.00000000
      vertex -0.43466662 -0.11646857 1.00000000
    endloop
  endfacet
  facet normal -0.69652819 -0.53446488 -0.47874395
    outer loop
      vertex -0.10392305 -0.06000000 0.40000000
      vertex -0.08485281 -0.08485281 0.40000000
      vertex -0.31819805 -0.31819805 1.00000000
    endloop
  endfacet
  facet normal -0.69652819 -0.53446488 -0.47874395
    outer loop
      vertex -0.10392305 -0.06000000 0.40000000
      vertex -0.31819805 -0.31819805 1.00000000
      vertex -0.38971143 -0.22500000 1.00000000
    endloop
  endfacet
  facet normal -0.53446488 -0.69652819 -0.47874395
    outer loop
      vertex -0.08485281 -0.08485281 0.40000000
      vertex -0.06000000 -0.10392305 0.40000000
      vertex -0.22500000 -0.38971143 1.00000000
    endloop
  endfacet
  facet normal -0.53446488 -0.69652819 -0.47874395
    outer loop
      vertex -0.08485281 -0.08485281 0.40000000
      vertex -0.22500000 -0.38971143 1.00000000
      vertex -0.31819805 -0.31819805 1.00000000
    endloop
  endfacet
  facet normal -0.33597867 -0.81112426 -0.47874395
    outer loop
      vertex -0.06000000 -0.10392305 0.40000000
      vertex -0.03105829 -0.11591110 0.40000000
      vertex -0.11646857 -0.43466662 1.00000000
    endloop
  endfacet
  facet normal -0.33597867 -0.81112426 -0.47874395
    outer loop
      vertex -0.06000000 -0.10392305 0.40000000
      vertex -0.11646857 -0.43466662 1.00000000
      vertex -0.22500000 -0.38971143 1.00000000
    endloop
  endfacet
  facet normal -0.11459607 -0.87044355 -0.47874395
    outer loop
      vertex -0.03105829 -0.11591110 0.40000000
      vertex -0.00000000 -0.12000000 0.40000000
      vertex -0.00000000 -0.45000000 1.00000000
    endloop
  endfacet
  facet normal -0.11459607 -0.87044355 -0.47874395
    outer loop
      vertex -0.03105829 -0.11591110 0.40000000
      vertex -0.00000000 -0.45000000 1.00000000
      vertex -0.11646857 -0.43466662 1.00000000
    endloop
  endfacet
  facet normal 0.11459607 -0.87044355 -0.47874395
    outer loop
      vertex -0.00000000 -0.12000000 0.40000000
      vertex 0.03105829 -0.11591110 0.40000000
      vertex 0.11646857 -0.43466662 1.00000000
    endloop
  endfacet
  facet normal 0.11459607 -0.87044355 -0.47874395
    outer loop
      vertex -0.00000000 -0.12000000 0.40000000
      vertex 0.11646857 -0.43466662 1.00000000
      vertex -0.00000000 -0.45000000 1.00000000
    endloop
  endfacet
  facet normal 0.33597867 -0.81112426 -0.47874395
    outer loop
      vertex 0.03105829 -0.11591110 0.40000000
      vertex 0.06000000 -0.10392305 0.40000000
      vertex 0.22500000 -0.38971143 1.00000000
    endloop
  endfacet
  facet normal 0.33597867 -0.81112426 -0.47874395
    outer loop
      vertex 0.03105829 -0.11591110 0.40000000
      vertex 0.22500000 -0.38971143 1.00000000
      vertex 0.11646857 -0.43466662 1.00000000
    endloop
  endfacet
  facet normal 0.53446488 -0.69652819 -0.47874395
    outer loop
      vertex 0.06000000 -0.10392305 0.40000000
      vertex 0.08485281 -0.08485281 0.40000000
      vertex 0.31819805 -0.31819805 1.00000000
    endloop
  endfacet
  facet normal 0.53446488 -0.69652819 -0.47874395
    outer loop
      vertex 0.06000000 -0.10392305 0.40000000
      vertex 0.31819805 -0.31819805 1.00000000
      vertex 0.22500000 -0.38971143 1.00000000
    endloop
  endfacet
  facet normal 0.69652819 -0.53446488 -0.47874395
    outer loop
      vertex 0.08485281 -0.08485281 0.40000000
      vertex 0.10392305 -0.06000000 0.40000000
      vertex 0.38971143 -0.22500000 1.00000000
    endloop
  endfacet
  facet normal 0.69652819 -0.53446488 -0.47874395
    outer loop
      vertex 0.08485281 -0.08485281 0.40000000
      vertex 0.38971143 -0.22500000 1.00000000
      vertex 0.31819805 -0.31819805 1.00000000
    endloop
  endfacet
  facet normal 0.81112426 -0.33597867 -0.47874395
    outer loop
      vertex 0.10392305 -0.06000000 0.40000000
      vertex 0.11591110 -0.03105829 0.40000000
      vertex 0.43466662 -0.11646857 1.00000000
    endloop
  endfacet
  facet normal 0.81112426 -0.33597867 -0.47874395
    outer loop
      vertex 0.10392305 -0.06000000 0.40000000
      vertex 0.43466662 -0.11646857 1.00000000
      vertex 0.38971143 -0.22500000 1.00000000
    endloop
  endfacet
  facet normal 0.87044355 -0.11459607 -0.47874395
    outer loop
      vertex 0.11591110 -0.03105829 0.40000000
      vertex 0.12000000 0.00000000 0.40000000
      vertex 0.45000000 0.00000000 1.00000000
    endloop
  endfacet
  facet normal 0.87044355 -0.11459607 -0.47874395
    outer loop
      vertex 0.11591110 -0.03105829 0.40000000
      vertex 0.45000000 0.00000000 1.00000000
      vertex 0.43466662 -0.11646857 1.00000000
    endloop
  endfacet
  facet normal 0.00000000 0.00000000 -1.00000000
    outer loop
      vertex 0.00000000 0.00000000 0.00000000
      vertex 0.33807404 0.09058667 0.00000000
      vertex 0.35000000 0.00000000 0.00000000
    endloop
  endfacet
  facet normal 0.00000000 0.00000000 1.00000000
    outer loop
      vertex 0.00000000 0.00000000 1.00000000
      vertex 0.45000000 0.00000000 1.00000000
      vertex 0.43466662 0.11646857 1.00000000
    endloop
  endfacet
  facet normal 0.00000000 0.00000000 -1.00000000
    outer loop
      vertex 0.00000000 0.00000000 0.00000000
      vertex 0.30310889 0.17500000 0.00000000
      vertex 0.33807404 0.09058667 0.00000000
    endloop
  endfacet
  facet normal 0.00000000 0.00000000 1.00000000
    outer loop
      vertex 0.00000000 0.00000000 1.00000000
      vertex 0.43466662 0.11646857 1.00000000
      vertex 0.38971143 0.22500000 1.00000000
    endloop
  endfacet
  facet normal 0.00000000 0.00000000 -1.00000000
    outer loop
      vertex 0.00000000 0.00000000 0.00000000
      vertex 0.24748737 0.24748737 0.00000000
      vertex 0.30310889 0.17500000 0.00000000
    endloop
  endfacet
  facet normal 0.00000000 0.00000000 1.00000000
    outer loop
      vertex 0.00000000 0.00000000 1.00000000
      vertex 0.38971143 0.22500000 1.00000000
      vertex 0.31819805 0.31819805 1.00000000
    endloop
  endfacet
  facet normal 0.00000000 0.00000000 -1.00000000
    outer loop
      vertex 0.00000000 0.00000000 0.00000000
      vertex 0.17500000 0.30310889 0.00000000
      vertex 0.24748737 0.24748737 0.00000000
    endloop
  endfacet
  facet normal 0.00000000 0.00000000 1.00000000
    outer loop
      vertex 0.00000000 0.00000000 1.00000000
      vertex 0.31819805 0.31819805 1.00000000
      vertex 0.22500000 0.38971143 1.00000000
    endloop
  endfacet
  facet normal 0.00000000 0.00000000 -1.00000000
    outer loop
      vertex 0.00000000 0.00000000 0.00000000
      vertex 0.09058667 0.33807404 0.00000000
      vertex 0.17500000 0.30310889 0.00000000
    endloop
  endfacet
  facet normal 0.00000000 0.00000000 1.00000000
    outer loop
      vertex 0.00000000 0.00000000 1.00000000
      vertex 0.22500000 0.38971143 1.00000000
      vertex 0.11646857 0.43466662 1.00000000
    endloop
  endfacet
  facet normal 0.00000000 0.00000000 -1.00000000
    outer loop
      vertex 0.00000000 0.00000000 0.00000000
      vertex 0.00000000 0.35000000 0.00000000
      vertex 0.09058667 0.33807404 0.00000000
    endloop
  endfacet
  facet normal 0.00000000 0.00000000 1.00000000
    outer loop
      vertex 0.00000000 0.00000000 1.00000000
      vertex 0.11646857 0.43466662 1.00000000
      vertex 0.00000000 0.45000000 1.00000000
    endloop
  endfacet
  facet normal 0.00000000 0.00000000 -1.00000000
    outer loop
      vertex 0.00000000 0.00000000 0.00000000
      vertex -0.09058667 0.33807404 0.00000000
      vertex 0.00000000 0.35000000 0.00000000
    endloop
  endfacet
  facet normal 0.00000000 -0.00000000 1.00000000
    outer loop
      vertex 0.00000000 0.00000000 1.00000000
      vertex 0.00000000 0.45000000 1.00000000
      vertex -0.11646857 0.43466662 1.00000000
    endloop
  endfacet
  facet normal 0.00000000 0.00000000 -1.00000000
    outer loop
      vertex 0.00000000 0.00000000 0.00000000
      vertex -0.17500000 0.30310889 0.00000000
      vertex -0.09058667 0.33807404 0.00000000
    endloop
  endfacet
  facet normal 0.00000000 0.00000000 1.00000000
    outer loop
      vertex 0.00000000 0.00000000 1.00000000
      vertex -0.11646857 0.43466662 1.00000000
      vertex -0.22500000 0.38971143 1.00000000
    endloop
  endfacet
  facet normal 0.00000000 0.00000000 -1.00000000
    outer loop
      vertex 0.00000000 0.00000000 0.00000000
      vertex -0.24748737 0.24748737 0.00000000
      vertex -0.17500000 0.30310889 0.00000000
    endloop
  endfacet
  facet normal 0.00000000 0.00000000 1.00000000
    outer loop
      vertex 0.00000000 0.00000000 1.00000000
      vertex -0.22500000 0.38971143 1.00000000
      vertex -0.31819805 0.31819805 1.00000000
    endloop
  endfacet
  facet normal 0.00000000 0.00000000 -1.00000000
    outer loop
      vertex 0.00000000 0.00000000 0.00000000
      vertex -0.30310889 0.17500000 0.00000000
      vertex -0.24748737 0.24748737 0.00000000
    endloop
  endfacet
  facet normal 0.00000000 0.00000000 1.00000000
    outer loop
      vertex 0.00000000 0.00000000 1.00000000
      vertex -0.31819805 0.31819805 1.00000000
      vertex -0.38971143 0.22500000 1.00000000
    endloop
  endfacet
  facet normal 0.00000000 0.00000000 -1.00000000
    outer loop
      vertex 0.00000000 0.00000000 0.00000000
      vertex -0.33807404 0.09058667 0.00000000
      vertex -0.30310889 0.17500000 0.00000000
    endloop
  endfacet
  facet normal 0.00000000 0.00000000 1.00000000
    outer loop
      vertex 0.00000000 0.00000000 1.00000000
      vertex -0.38971143 0.22500000 1.00000000
      vertex -0.43466662 0.11646857 1.00000000
    endloop
  endfacet
  facet normal 0.00000000 0.00000000 -1.00000000
    outer loop
      vertex 0.00000000 0.00000000 0.00000000
      vertex -0.35000000 0.00000000 0.00000000
      vertex -0.33807404 0.09058667 0.00000000
    endloop
  endfacet
  facet normal 0.00000000 0.00000000 1.00000000
    outer loop
      vertex 0.00000000 0.00000000 1.00000000
      vertex -0.43466662 0.11646857 1.00000000
      vertex -0.45000000 0.00000000 1.00000000
    endloop
  endfacet
  facet normal -0.00000000 0.00000000 -1.00000000
    outer loop
      vertex 0.00000000 0.00000000 0.00000000
      vertex -0.33807404 -0.09058667 0.00000000
      vertex -0.35000000 0.00000000 0.00000000
    endloop
  endfacet
  facet normal 0.00000000 0.00000000 1.00000000
    outer loop
      vertex 0.00000000 0.00000000 1.00000000
      vertex -0.45000000 0.00000000 1.00000000
      vertex -0.43466662 -0.11646857 1.00000000
    endloop
  endfacet
  facet normal 0.00000000 0.00000000 -1.00000000
    outer loop
      vertex 0.00000000 0.00000000 0.00000000
      vertex -0.30310889 -0.17500000 0.00000000
      vertex -0.33807404 -0.09058667 0.00000000
    endloop
  endfacet
  facet normal 0.00000000 0.00000000 1.00000000
    outer loop
      vertex 0.00000000 0.00000000 1.00000000
      vertex -0.43466662 -0.11646857 1.00000000
      vertex -0.38971143 -0.22500000 1.00000000
    endloop
  endfacet
  facet normal 0.00000000 0.00000000 -1.00000000
    outer loop
      vertex 0.00000000 0.00000000 0.00000000
      vertex -0.24748737 -0.24748737 0.00000000
      vertex -0.30310889 -0.17500000 0.00000000
    endloop
  endfacet
  facet normal 0.00000000 0.00000000 1.00000000
    outer loop
      vertex 0.00000000 0.00000000 1.00000000
      vertex -0.38971143 -0.22500000 1.00000000
      vertex -0.31819805 -0.31819805 1.00000000
    endloop
  endfacet
  facet normal 0.00000000 0.00000000 -1.00000000
    outer loop
      vertex 0.00000000 0.00000000 0.00000000
      vertex -0.17500000 -0.30310889 0.00000000
      vertex -0.24748737 -0.24748737 0.00000000
    endloop
  endfacet
  facet normal 0.00000000 0.00000000 1.00000000
    outer loop
      vertex 0.00000000 0.00000000 1.00000000
      vertex -0.31819805 -0.31819805 1.00000000
      vertex -0.22500000 -0.38971143 1.00000000
    endloop
  endfacet
  facet normal 0.00000000 0.00000000 -1.00000000
    outer loop
      vertex 0.00000000 0.00000000 0.00000000
      vertex -0.09058667 -0.33807404 0.00000000
      vertex -0.17500000 -0.30310889 0.00000000
    endloop
  endfacet
  facet normal 0.00000000 0.00000000 1.00000000
    outer loop
      vertex 0.00000000 0.00000000 1.00000000
      vertex -0.22500000 -0.38971143 1.00000000
      vertex -0.11646857 -0.43466662 1.00000000
    endloop
  endfacet
  facet normal 0.00000000 0.00000000 -1.00000000
    outer loop
      vertex 0.00000000 0.00000000 0.00000000
      vertex -0.00000000 -0.35000000 0.00000000
      vertex -0.09058667 -0.33807404 0.00000000
    endloop
  endfacet
  facet normal 0.00000000 0.00000000 1.00000000
    outer loop
      vertex 0.00000000 0.00000000 1.00000000
      vertex -0.11646857 -0.43466662 1.00000000
      vertex -0.00000000 -0.45000000 1.00000000
    endloop
  endfacet
  facet normal 0.00000000 -0.00000000 -1.00000000
    outer loop
      vertex 0.00000000 0.00000000 0.00000000
      vertex 0.09058667 -0.33807404 0.00000000
      vertex -0.00000000 -0.35000000 0.00000000
    endloop
  endfacet
  facet normal 0.00000000 0.00000000 1.00000000
    outer loop
      vertex 0.00000000 0.00000000 1.00000000
      vertex -0.00000000 -0.45000000 1.00000000
      vertex 0.11646857 -0.43466662 1.00000000
    endloop
  endfacet
  facet normal 0.00000000 0.00000000 -1.00000000
    outer loop
      vertex 0.00000000 0.00000000 0.00000000
      vertex 0.17500000 -0.30310889 0.00000000
      vertex 0.09058667 -0.33807404 0.00000000
    endloop
  endfacet
  facet normal 0.00000000 0.00000000 1.00000000
    outer loop
      vertex 0.00000000 0.00000000 1.00000000
      vertex 0.11646857 -0.43466662 1.00000000
      vertex 0.22500000 -0.38971143 1.00000000
    endloop
  endfacet
  facet normal 0.00000000 0.00000000 -1.00000000
    outer loop
      vertex 0.00000000 0.00000000 0.00000000
      vertex 0.24748737 -0.24748737 0.00000000
      vertex 0.17500000 -0.30310889 0.00000000
    endloop
  endfacet
  facet normal 0.00000000 0.00000000 1.00000000
    outer loop
      vertex 0.00000000 0.00000000 1.00000000
      vertex 0.22500000 -0.38971143 1.00000000
      vertex 0.31819805 -0.31819805 1.00000000
    endloop
  endfacet
  facet normal 0.00000000 0.00000000 -1.00000000
    outer loop
      vertex 0.00000000 0.00000000 0.00000000
      vertex 0.30310889 -0.17500000 0.00000000
      vertex 0.24748737 -0.24748737 0.00000000
    endloop
  endfacet
  facet normal 0.00000000 0.00000000 1.00000000
    outer loop
      vertex 0.00000000 0.00000000 1.00000000
      vertex 0.31819805 -0.31819805 1.00000000
      vertex 0.38971143 -0.22500000 1.00000000
    endloop
  endfacet
  facet normal 0.00000000 0.00000000 -1.00000000
    outer loop
      vertex 0.00000000 0.00000000 0.00000000
      vertex 0.33807404 -0.09058667 0.00000000
      vertex 0.30310889 -0.17500000 0.00000000
    endloop
  endfacet
  facet normal 0.00000000 0.00000000 1.00000000
    outer loop
      vertex 0.00000000 0.00000000 1.00000000
      vertex 0.38971143 -0.22500000 1.00000000
      vertex 0.43466662 -0.11646857 1.00000000
    endloop
  endfacet
  facet normal 0.00000000 0.00000000 -1.00000000
    outer loop
      vertex 0.00000000 0.00000000 0.00000000
      vertex 0.35000000 0.00000000 0.00000000
      vertex 0.33807404 -0.09058667 0.00000000
    endloop
  endfacet
  facet normal -0.00000000 0.00000000 1.00000000
    outer loop
      vertex 0.00000000 0.00000000 1.00000000
      vertex 0.43466662 -0.11646857 1.00000000
      vertex 0.45000000 0.00000000 1.00000000
    endloop
  endfacet
endsolid de_laval_nozzle_idealized
