solid frustum_r0p2_r0p5_h1
  facet normal 0.95030059 0.12510945 -0.28509018
    outer loop
      vertex 0.20000000 0.00000000 0.00000000
      vertex 0.19318517 0.05176381 0.00000000
      vertex 0.48296291 0.12940952 1.00000000
    endloop
  endfacet
  facet normal 0.95030059 0.12510945 -0.28509018
    outer loop
      vertex 0.20000000 0.00000000 0.00000000
      vertex 0.48296291 0.12940952 1.00000000
      vertex 0.50000000 0.00000000 1.00000000
    endloop
  endfacet
  facet normal 0.88553918 0.36680234 -0.28509018
    outer loop
      vertex 0.19318517 0.05176381 0.00000000
      vertex 0.17320508 0.10000000 0.00000000
      vertex 0.43301270 0.25000000 1.00000000
    endloop
  endfacet
  facet normal 0.88553918 0.36680234 -0.28509018
    outer loop
      vertex 0.19318517 0.05176381 0.00000000
      vertex 0.43301270 0.25000000 1.00000000
      vertex 0.48296291 0.12940952 1.00000000
    endloop
  endfacet
  facet normal 0.76042973 0.58349826 -0.28509018
    outer loop
      vertex 0.17320508 0.10000000 0.00000000
      vertex 0.14142136 0.14142136 0.00000000
      vertex 0.35355339 0.35355339 1.00000000
    endloop
  endfacet
  facet normal 0.76042973 0.58349826 -0.28509018
    outer loop
      vertex 0.17320508 0.10000000 0.00000000
      vertex 0.35355339 0.35355339 1.00000000
      vertex 0.43301270 0.25000000 1.00000000
    endloop
  endfacet
  facet normal 0.58349826 0.76042973 -0.28509018
    outer loop
      vertex 0.14142136 0.14142136 0.00000000
      vertex 0.10000000 0.17320508 0.00000000
      vertex 0.25000000 0.43301270 1.00000000
    endloop
  endfacet
  facet normal 0.58349826 0.76042973 -0.28509018
    outer loop
      vertex 0.14142136 0.14142136 0.00000000
      vertex 0.25000000 0.43301270 1.00000000
      vertex 0.35355339 0.35355339 1.00000000
    endloop
  endfacet
  facet normal 0.36680234 0.88553918 -0.28509018
    outer loop
      vertex 0.10000000 0.17320508 0.00000000
      vertex 0.05176381 0.19318517 0.00000000
      vertex 0.12940952 0.48296291 1.00000000
    endloop
  endfacet
  facet normal 0.36680234 0.88553918 -0.28509018
    outer loop
      vertex 0.10000000 0.17320508 0.00000000
      vertex 0.12940952 0.48296291 1.00000000
      vertex 0.25000000 0.43301270 1.00000000
    endloop
  endfacet
  facet normal 0.12510945 0.95030059 -0.28509018
    outer loop
      vertex 0.05176381 0.19318517 0.00000000
      vertex 0.00000000 0.20000000 0.00000000
      vertex 0.00000000 0.50000000 1.00000000
    endloop
  endfacet
  facet normal 0.12510945 0.95030059 -0.28509018
    outer loop
      vertex 0.05176381 0.19318517 0.00000000
      vertex 0.00000000 0.50000000 1.00000000
      vertex 0.12940952 0.48296291 1.00000000
    endloop
  endfacet
  facet normal -0.12510945 0.95030059 -0.28509018
    outer loop
      vertex 0.00000000 0.20000000 0.00000000
      vertex -0.05176381 0.19318517 0.00000000
      vertex -0.12940952 0.48296291 1.00000000
    endloop
  endfacet
  facet normal -0.12510945 0.95030059 -0.28509018
    outer loop
      vertex 0.00000000 0.20000000 0.00000000
      vertex -0.12940952 0.48296291 1.00000000
      vertex 0.00000000 0.50000000 1.00000000
    endloop
  endfacet
  facet normal -0.36680234 0.88553918 -0.28509018
    outer loop
      vertex -0.05176381 0.19318517 0.00000000
      vertex -0.10000000 0.17320508 0.00000000
      vertex -0.25000000 0.43301270 1.00000000
    endloop
  endfacet
  facet normal -0.36680234 0.88553918 -0.28509018
    outer loop
      vertex -0.05176381 0.19318517 0.00000000
      vertex -0.25000000 0.43301270 1.00000000
      vertex -0.12940952 0.48296291 1.00000000
    endloop
  endfacet
  facet normal -0.58349826 0.76042973 -0.28509018
    outer loop
      vertex -0.10000000 0.17320508 0.00000000
      vertex -0.14142136 0.14142136 0.00000000
      vertex -0.35355339 0.35355339 1.00000000
    endloop
  endfacet
  facet normal -0.58349826 0.76042973 -0.28509018
    outer loop
      vertex -0.10000000 0.17320508 0.00000000
      vertex -0.35355339 0.35355339 1.00000000
      vertex -0.25000000 0.43301270 1.00000000
    endloop
  endfacet
  facet normal -0.76042973 0.58349826 -0.28509018
    outer loop
      vertex -0.14142136 0.14142136 0.00000000
      vertex -0.17320508 0.10000000 0.00000000
      vertex -0.43301270 0.25000000 1.00000000
    endloop
  endfacet
  facet normal -0.76042973 0.58349826 -0.28509018
    outer loop
      vertex -0.14142136 0.14142136 0.00000000
      vertex -0.43301270 0.25000000 1.00000000
      vertex -0.35355339 0.35355339 1.00000000
    endloop
  endfacet
  facet normal -0.88553918 0.36680234 -0.28509018
    outer loop
      vertex -0.17320508 0.10000000 0.00000000
      vertex -0.19318517 0.05176381 0.00000000
      vertex -0.48296291 0.12940952 1.00000000
    endloop
  endfacet
  facet normal -0.88553918 0.36680234 -0.28509018
    outer loop
      vertex -0.17320508 0.10000000 0.00000000
      vertex -0.48296291 0.12940952 1.00000000
      vertex -0.43301270 0.25000000 1.00000000
    endloop
  endfacet
  facet normal -0.95030059 0.12510945 -0.28509018
    outer loop
      vertex -0.19318517 0.05176381 0.00000000
      vertex -0.20000000 0.00000000 0.00000000
      vertex -0.50000000 0.00000000 1.00000000
    endloop
  endfacet
  facet normal -0.95030059 0.12510945 -0.28509018
    outer loop
      vertex -0.19318517 0.05176381 0.00000000
      vertex -0.50000000 0.00000000 1.00000000
      vertex -0.48296291 0.12940952 1.00000000
    endloop
  endfacet
  facet normal -0.95030059 -0.12510945 -0.28509018
    outer loop
      vertex -0.20000000 0.00000000 0.00000000
      vertex -0.19318517 -0.05176381 0.00000000
      vertex -0.48296291 -0.12940952 1.00000000
    endloop
  endfacet
  facet normal -0.95030059 -0.12510945 -0.28509018
    outer loop
      vertex -0.20000000 0.00000000 0.00000000
      vertex -0.48296291 -0.12940952 1.00000000
      vertex -0.50000000 0.00000000 1.00000000
    endloop
  endfacet
  facet normal -0.88553918 -0.36680234 -0.28509018
    outer loop
      vertex -0.19318517 -0.05176381 0.00000000
      vertex -0.17320508 -0.10000000 0.00000000
      vertex -0.43301270 -0.25000000 1.00000000
    endloop
  endfacet
  facet normal -0.88553918 -0.36680234 -0.28509018
    outer loop
      vertex -0.19318517 -0.05176381 0.00000000
      vertex -0.43301270 -0.25000000 1.00000000
      vertex -0.48296291 -0.12940952 1.00000000
    endloop
  endfacet
  facet normal -0.76042973 -0.58349826 -0.28509018
    outer loop
      vertex -0.17320508 -0.10000000 0.00000000
      vertex -0.14142136 -0.14142136 0.00000000
      vertex -0.35355339 -0.35355339 1.00000000
    endloop
  endfacet
  facet normal -0.76042973 -0.58349826 -0.28509018
    outer loop
      vertex -0.17320508 -0.10000000 0.00000000
      vertex -0.35355339 -0.35355339 1.00000000
      vertex -0.43301270 -0.25000000 1.00000000
    endloop
  endfacet
  facet normal -0.58349826 -0.76042973 -0.28509018
    outer loop
      vertex -0.14142136 -0.14142136 0.00000000
      vertex -0.10000000 -0.17320508 0.00000000
      vertex -0.25000000 -0.43301270 1.00000000
    endloop
  endfacet
  facet normal -0.58349826 -0.76042973 -0.28509018
    outer loop
      vertex -0.14142136 -0.14142136 0.00000000
      vertex -0.25000000 -0.43301270 1.00000000
      vertex -0.35355339 -0.35355339 1.00000000
    endloop
  endfacet
  facet normal -0.36680234 -0.88553918 -0.28509018
    outer loop
      vertex -0.10000000 -0.17320508 0.00000000
      vertex -0.05176381 -0.19318517 0.00000000
      vertex -0.12940952 -0.48296291 1.00000000
    endloop
  endfacet
  facet normal -0.36680234 -0.88553918 -0.28509018
    outer loop
      vertex -0.10000000 -0.17320508 0.00000000
      vertex -0.12940952 -0.48296291 1.00000000
      vertex -0.25000000 -0.43301270 1.00000000
    endloop
  endfacet
  facet normal -0.12510945 -0.95030059 -0.28509018
    outer loop
      vertex -0.05176381 -0.19318517 0.00000000
      vertex -0.00000000 -0.20000000 0.00000000
      vertex -0.00000000 -0.50000000 1.00000000
    endloop
  endfacet
  facet normal -0.12510945 -0.95030059 -0.28509018
    outer loop
      vertex -0.05176381 -0.19318517 0.00000000
      vertex -0.00000000 -0.50000000 1.00000000
      vertex -0.12940952 -0.48296291 1.00000000
    endloop
  endfacet
  facet normal 0.12510945 -0.95030059 -0.28509018
    outer loop
      vertex -0.00000000 -0.20000000 0.00000000
      vertex 0.05176381 -0.19318517 0.00000000
      vertex 0.12940952 -0.48296291 1.00000000
    endloop
  endfacet
  facet normal 0.12510945 -0.95030059 -0.28509018
    outer loop
      vertex -0.00000000 -0.20000000 0.00000000
      vertex 0.12940952 -0.48296291 1.00000000
      vertex -0.00000000 -0.50000000 1.00000000
    endloop
  endfacet
  facet normal 0.36680234 -0.88553918 -0.28509018
    outer loop
      vertex 0.05176381 -0.19318517 0.00000000
      vertex 0.10000000 -0.17320508 0.00000000
      vertex 0.25000000 -0.43301270 1.00000000
    endloop
  endfacet
  facet normal 0.36680234 -0.88553918 -0.28509018
    outer loop
      vertex 0.05176381 -0.19318517 0.00000000
      vertex 0.25000000 -0.43301270 1.00000000
      vertex 0.12940952 -0.48296291 1.00000000
    endloop
  endfacet
  facet normal 0.58349826 -0.76042973 -0.28509018
    outer loop
      vertex 0.10000000 -0.17320508 0.00000000
      vertex 0.14142136 -0.14142136 0.00000000
      vertex 0.35355339 -0.35355339 1.00000000
    endloop
  endfacet
  facet normal 0.58349826 -0.76042973 -0.28509018
    outer loop
      vertex 0.10000000 -0.17320508 0.00000000
      vertex 0.35355339 -0.35355339 1.00000000
      vertex 0.25000000 -0.43301270 1.00000000
    endloop
  endfacet
  facet normal 0.76042973 -0.58349826 -0.28509018
    outer loop
      vertex 0.14142136 -0.14142136 0.00000000
      vertex 0.17320508 -0.10000000 0.00000000
      vertex 0.43301270 -0.25000000 1.00000000
    endloop
  endfacet
  facet normal 0.76042973 -0.58349826 -0.28509018
    outer loop
      vertex 0.14142136 -0.14142136 0.00000000
      vertex 0.43301270 -0.25000000 1.00000000
      vertex 0.35355339 -0.35355339 1.00000000
    endloop
  endfacet
  facet normal 0.88553918 -0.36680234 -0.28509018
    outer loop
      vertex 0.17320508 -0.10000000 0.00000000
      vertex 0.19318517 -0.05176381 0.00000000
      vertex 0.48296291 -0.12940952 1.00000000
    endloop
  endfacet
  facet normal 0.88553918 -0.36680234 -0.28509018
    outer loop
      vertex 0.17320508 -0.10000000 0.00000000
      vertex 0.48296291 -0.12940952 1.00000000
      vertex 0.43301270 -0.25000000 1.00000000
    endloop
  endfacet
  facet normal 0.95030059 -0.12510945 -0.28509018
    outer loop
      vertex 0.19318517 -0.05176381 0.00000000
      vertex 0.20000000 0.00000000 0.00000000
      vertex 0.50000000 0.00000000 1.00000000
    endloop
  endfacet
  facet normal 0.95030059 -0.12510945 -0.28509018
    outer loop
      vertex 0.19318517 -0.05176381 0.00000000
      vertex 0.50000000 0.00000000 1.00000000
      vertex 0.48296291 -0.12940952 1.00000000
    endloop
  endfacet
  facet normal 0.00000000 0.00000000 -1.00000000
    outer loop
      vertex 0.00000000 0.00000000 0.00000000
      vertex 0.19318517 0.05176381 0.00000000
      vertex 0.20000000 0.00000000 0.00000000
    endloop
  endfacet
  facet normal 0.00000000 0.00000000 1.00000000
    outer loop
      vertex 0.00000000 0.00000000 1.00000000
      vertex 0.50000000 0.00000000 1.00000000
      vertex 0.48296291 0.12940952 1.00000000
    endloop
  endfacet
  facet normal 0.00000000 0.00000000 -1.00000000
    outer loop
      vertex 0.00000000 0.00000000 0.00000000
      vertex 0.17320508 0.10000000 0.00000000
      vertex 0.19318517 0.05176381 0.00000000
    endloop
  endfacet
  facet normal 0.00000000 0.00000000 1.00000000
    outer loop
      vertex 0.00000000 0.00000000 1.00000000
      vertex 0.48296291 0.12940952 1.00000000
      vertex 0.43301270 0.25000000 1.00000000
    endloop
  endfacet
  facet normal 0.00000000 0.00000000 -1.00000000
    outer loop
      vertex 0.00000000 0.00000000 0.00000000
      vertex 0.14142136 0.14142136 0.00000000
      vertex 0.17320508 0.10000000 0.00000000
    endloop
  endfacet
  facet normal 0.00000000 0.00000000 1.00000000
    outer loop
      vertex 0.00000000 0.00000000 1.00000000
      vertex 0.43301270 0.25000000 1.00000000
      vertex 0.35355339 0.35355339 1.00000000
    endloop
  endfacet
  facet normal 0.00000000 0.00000000 -1.00000000
    outer loop
      vertex 0.00000000 0.00000000 0.00000000
      vertex 0.10000000 0.17320508 0.00000000
      vertex 0.14142136 0.14142136 0.00000000
    endloop
  endfacet
  facet normal 0.00000000 0.00000000 1.00000000
    outer loop
      vertex 0.00000000 0.00000000 1.00000000
      vertex 0.35355339 0.35355339 1.00000000
      vertex 0.25000000 0.43301270 1.00000000
    endloop
  endfacet
  facet normal 0.00000000 0.00000000 -1.00000000
    outer loop
      vertex 0.00000000 0.00000000 0.00000000
      vertex 0.05176381 0.19318517 0.00000000
      vertex 0.10000000 0.17320508 0.00000000
    endloop
  endfacet
  facet normal 0.00000000 0.00000000 1.00000000
    outer loop
      vertex 0.00000000 0.00000000 1.00000000
      vertex 0.25000000 0.43301270 1.00000000
      vertex 0.12940952 0.48296291 1.00000000
    endloop
  endfacet
  facet normal 0.00000000 0.00000000 -1.00000000
    outer loop
      vertex 0.00000000 0.00000000 0.00000000
      vertex 0.00000000 0.20000000 0.00000000
      vertex 0.05176381 0.19318517 0.00000000
    endloop
  endfacet
  facet normal 0.00000000 0.00000000 1.00000000
    outer loop
      vertex 0.00000000 0.00000000 1.00000000
      vertex 0.12940952 0.48296291 1.00000000
      vertex 0.00000000 0.50000000 1.00000000
    endloop
  endfacet
  facet normal 0.00000000 0.00000000 -1.00000000
    outer loop
      vertex 0.00000000 0.00000000 0.00000000
      vertex -0.05176381 0.19318517 0.00000000
      vertex 0.00000000 0.20000000 0.00000000
    endloop
  endfacet
  facet normal 0.00000000 -0.00000000 1.00000000
    outer loop
      vertex 0.00000000 0.00000000 1.00000000
      vertex 0.00000000 0.50000000 1.00000000
      vertex -0.12940952 0.48296291 1.00000000
    endloop
  endfacet
  facet normal 0.00000000 0.00000000 -1.00000000
    outer loop
      vertex 0.00000000 0.00000000 0.00000000
      vertex -0.10000000 0.17320508 0.00000000
      vertex -0.05176381 0.19318517 0.00000000
    endloop
  endfacet
  facet normal 0.00000000 0.00000000 1.00000000
    outer loop
      vertex 0.00000000 0.00000000 1.00000000
      vertex -0.12940952 0.48296291 1.00000000
      vertex -0.25000000 0.43301270 1.00000000
    endloop
  endfacet
  facet normal 0.00000000 0.00000000 -1.00000000
    outer loop
      vertex 0.00000000 0.00000000 0.00000000
      vertex -0.14142136 0.14142136 0.00000000
      vertex -0.10000000 0.17320508 0.00000000
    endloop
  endfacet
  facet normal 0.00000000 0.00000000 1.00000000
    outer loop
      vertex 0.00000000 0.00000000 1.00000000
      vertex -0.25000000 0.43301270 1.00000000
      vertex -0.35355339 0.35355339 1.00000000
    endloop
  endfacet
  facet normal 0.00000000 0.00000000 -1.00000000
    outer loop
      vertex 0.00000000 0.00000000 0.00000000
      vertex -0.17320508 0.10000000 0.00000000
      vertex -0.14142136 0.14142136 0.00000000
    endloop
  endfacet
  facet normal 0.00000000 0.00000000 1.00000000
    outer loop
      vertex 0.00000000 0.00000000 1.00000000
      vertex -0.35355339 0.35355339 1.00000000
      vertex -0.43301270 0.25000000 1.00000000
    endloop
  endfacet
  facet normal 0.00000000 0.00000000 -1.00000000
    outer loop
      vertex 0.00000000 0.00000000 0.00000000
      vertex -0.19318517 0.05176381 0.00000000
      vertex -0.17320508 0.10000000 0.00000000
    endloop
  endfacet
  facet normal 0.00000000 0.00000000 1.00000000
    outer loop
      vertex 0.00000000 0.00000000 1.00000000
      vertex -0.43301270 0.25000000 1.00000000
      vertex -0.48296291 0.12940952 1.00000000
    endloop
  endfacet
  facet normal 0.00000000 0.00000000 -1.00000000
    outer loop
      vertex 0.00000000 0.00000000 0.00000000
      vertex -0.20000000 0.00000000 0.00000000
      vertex -0.19318517 0.05176381 0.00000000
    endloop
  endfacet
  facet normal 0.00000000 0.00000000 1.00000000
    outer loop
      vertex 0.00000000 0.00000000 1.00000000
      vertex -0.48296291 0.12940952 1.00000000
      vertex -0.50000000 0.00000000 1.00000000
    endloop
  endfacet
  facet normal -0.00000000 0.00000000 -1.00000000
    outer loop
      vertex 0.00000000 0.00000000 0.00000000
      vertex -0.19318517 -0.05176381 0.00000000
      vertex -0.20000000 0.00000000 0.00000000
    endloop
  endfacet
  facet normal 0.00000000 0.00000000 1.00000000
    outer loop
      vertex 0.00000000 0.00000000 1.00000000
      vertex -0.50000000 0.00000000 1.00000000
      vertex -0.48296291 -0.12940952 1.00000000
    endloop
  endfacet
  facet normal 0.00000000 0.00000000 -1.00000000
    outer loop
      vertex 0.00000000 0.00000000 0.00000000
      vertex -0.17320508 -0.10000000 0.00000000
      vertex -0.19318517 -0.05176381 0.00000000
    endloop
  endfacet
  facet normal 0.00000000 0.00000000 1.00000000
    outer loop
      vertex 0.00000000 0.00000000 1.00000000
      vertex -0.48296291 -0.12940952 1.00000000
      vertex -0.43301270 -0.25000000 1.00000000
    endloop
  endfacet
  facet normal 0.00000000 0.00000000 -1.00000000
    outer loop
      vertex 0.00000000 0.00000000 0.00000000
      vertex -0.14142136 -0.14142136 0.00000000
      vertex -0.17320508 -0.10000000 0.00000000
    endloop
  endfacet
  facet normal 0.00000000 0.00000000 1.00000000
    outer loop
      vertex 0.00000000 0.00000000 1.00000000
      vertex -0.43301270 -0.25000000 1.00000000
      vertex -0.35355339 -0.35355339 1.00000000
    endloop
  endfacet
  facet normal 0.00000000 0.00000000 -1.00000000
    outer loop
      vertex 0.00000000 0.00000000 0.00000000
      vertex -0.10000000 -0.17320508 0.00000000
      vertex -0.14142136 -0.14142136 0.00000000
    endloop
  endfacet
  facet normal 0.00000000 0.00000000 1.00000000
    outer loop
      vertex 0.00000000 0.00000000 1.00000000
      vertex -0.35355339 -0.35355339 1.00000000
      vertex -0.25000000 -0.43301270 1.00000000
    endloop
  endfacet
  facet normal 0.00000000 0.00000000 -1.00000000
    outer loop
      vertex 0.00000000 0.00000000 0.00000000
      vertex -0.05176381 -0.19318517 0.00000000
      vertex -0.10000000 -0.17320508 0.00000000
    endloop
  endfacet
  facet normal 0.00000000 0.00000000 1.00000000
    outer loop
      vertex 0.00000000 0.00000000 1.00000000
      vertex -0.25000000 -0.43301270 1.00000000
      vertex -0.12940952 -0.48296291 1.00000000
    endloop
  endfacet
  facet normal 0.00000000 0.00000000 -1.00000000
    outer loop
      vertex 0.00000000 0.00000000 0.00000000
      vertex -0.00000000 -0.20000000 0.00000000
      vertex -0.05176381 -0.19318517 0.00000000
    endloop
  endfacet
  facet normal 0.00000000 0.00000000 1.00000000
    outer loop
      vertex 0.00000000 0.00000000 1.00000000
      vertex -0.12940952 -0.48296291 1.00000000
      vertex -0.00000000 -0.50000000 1.00000000
    endloop
  endfacet
  facet normal 0.00000000 -0.00000000 -1.00000000
    outer loop
      vertex 0.00000000 0.00000000 0.00000000
      vertex 0.05176381 -0.19318517 0.00000000
      vertex -0.00000000 -0.20000000 0.00000000
    endloop
  endfacet
  facet normal 0.00000000 0.00000000 1.00000000
    outer loop
      vertex 0.00000000 0.00000000 1.00000000
      vertex -0.00000000 -0.50000000 1.00000000
      vertex 0.12940952 -0.48296291 1.00000000
    endloop
  endfacet
  facet normal 0.00000000 0.00000000 -1.00000000
    outer loop
      vertex 0.00000000 0.00000000 0.00000000
      vertex 0.10000000 -0.17320508 0.00000000
      vertex 0.05176381 -0.19318517 0.00000000
    endloop
  endfacet
  facet normal 0.00000000 0.00000000 1.00000000
    outer loop
      vertex 0.00000000 0.00000000 1.00000000
      vertex 0.12940952 -0.48296291 1.00000000
      vertex 0.25000000 -0.43301270 1.00000000
    endloop
  endfacet
  facet normal 0.00000000 0.00000000 -1.00000000
    outer loop
      vertex 0.00000000 0.00000000 0.00000000
      vertex 0.14142136 -0.14142136 0.00000000
      vertex 0.10000000 -0.17320508 0.00000000
    endloop
  endfacet
  facet normal 0.00000000 0.00000000 1.00000000
    outer loop
      vertex 0.00000000 0.00000000 1.00000000
      vertex 0.25000000 -0.43301270 1.00000000
      vertex 0.35355339 -0.35355339 1.00000000
    endloop
  endfacet
  facet normal 0.00000000 0.00000000 -1.00000000
    outer loop
      vertex 0.00000000 0.00000000 0.00000000
      vertex 0.17320508 -0.10000000 0.00000000
      vertex 0.14142136 -0.14142136 0.00000000
    endloop
  endfacet
  facet normal 0.00000000 0.00000000 1.00000000
    outer loop
      vertex 0.00000000 0.00000000 1.00000000
      vertex 0.35355339 -0.35355339 1.00000000
      vertex 0.43301270 -0.25000000 1.00000000
    endloop
  endfacet
  facet normal 0.00000000 0.00000000 -1.00000000
    outer loop
      vertex 0.00000000 0.00000000 0.00000000
      vertex 0.19318517 -0.05176381 0.00000000
      vertex 0.17320508 -0.10000000 0.00000000
    endloop
  endfacet
  facet normal 0.00000000 0.00000000 1.00000000
    outer loop
      vertex 0.00000000 0.00000000 1.00000000
      vertex 0.43301270 -0.25000000 1.00000000
      vertex 0.48296291 -0.12940952 1.00000000
    endloop
  endfacet
  facet normal 0.00000000 0.00000000 -1.00000000
    outer loop
      vertex 0.00000000 0.00000000 0.00000000
      vertex 0.20000000 0.00000000 0.00000000
      vertex 0.19318517 -0.05176381 0.00000000
    endloop
  endfacet
  facet normal -0.00000000 0.00000000 1.00000000
    outer loop
      vertex 0.00000000 0.00000000 1.00000000
      vertex 0.48296291 -0.12940952 1.00000000
      vertex 0.50000000 0.00000000 1.00000000
    endloop
  endfacet
endsolid frustum_r0p2_r0p5_h1
